<svg preserveAspectRatio="none" overflow="visible" style="display: block;" width="73.0032" height="56.3342" viewBox="0 0 73.0032 56.3342" fill="none" xmlns="http://www.w3.org/2000/svg">
<defs>
  <filter id="logo_glass_filter" x="-20%" y="-20%" width="140%" height="140%" filterUnits="userSpaceOnUse">
    <feFlood flood-opacity="0" result="BackgroundImageFix"/>
    <feBlend mode="normal" in="SourceGraphic" in2="BackgroundImageFix" result="shape"/>
    <feColorMatrix in="SourceAlpha" type="matrix" values="0 0 0 0 0 0 0 0 0 0 0 0 0 0 0 0 0 0 127 0" result="hardAlpha"/>
    <feOffset dy="1.5"/>
    <feGaussianBlur stdDeviation="1"/>
    <feComposite in2="hardAlpha" operator="arithmetic" k2="-1" k3="1"/>
    <feColorMatrix type="matrix" values="0 0 0 0 0 0 0 0 0 0 0 0 0 0 0 0 0 0 0.22 0"/>
    <feBlend mode="normal" in2="shape" result="innerShadow"/>
  </filter>

  <linearGradient id="logo_frost_grad" x1="36.5" y1="0" x2="36.5" y2="56.3" gradientUnits="userSpaceOnUse">
    <stop offset="0%" stop-color="#FFFFFF" stop-opacity="0.95"/>
    <stop offset="45%" stop-color="#ECECEF" stop-opacity="0.82"/>
    <stop offset="75%" stop-color="#DADAE0" stop-opacity="0.70"/>
    <stop offset="100%" stop-color="#C6C6CE" stop-opacity="0.65"/>
  </linearGradient>

  <linearGradient id="logo_stroke_grad" x1="0" y1="0" x2="73" y2="56" gradientUnits="userSpaceOnUse">
    <stop offset="0%" stop-color="#FFFFFF" stop-opacity="0.9"/>
    <stop offset="50%" stop-color="#E8E8EC" stop-opacity="0.6"/>
    <stop offset="100%" stop-color="#D0D0D8" stop-opacity="0.4"/>
  </linearGradient>
</defs>

<g filter="url(#logo_glass_filter)">
  <path d="M72.3574 43.1283C70.9252 44.928 67.44 46.208 67.44 46.208L41.4464 55.5358V48.654L60.5709 41.8356C62.7381 41.0625 63.0803 39.9599 61.306 39.3769C59.5443 38.7939 56.3506 38.9587 54.1834 39.7444L41.4464 44.2436V37.0957C44.3867 36.1071 47.4157 35.3721 51.0403 34.9665C56.2238 34.3962 62.5606 35.0425 67.5414 36.9309C73.1431 38.7052 73.7768 41.3286 72.3574 43.1283ZM43.9178 31.4052V13.7889C43.9178 11.7231 43.5376 9.82205 41.5985 9.27708C40.1157 8.79549 39.1905 10.1769 39.1905 12.2427V56.3342L27.3027 52.5575V0C32.3594 0.937847 39.7228 3.15573 43.677 4.48646C53.7525 7.94635 57.1617 12.2554 57.1617 21.9507C57.1617 31.3925 51.3318 34.9792 43.9178 31.4052ZM5.4787 47.9316C-0.275117 46.3094 -1.23831 42.9255 1.38513 40.9865C3.80579 39.1868 7.93738 37.8307 7.93738 37.8307L24.9834 31.7727V38.6799L12.7153 43.0649C10.5481 43.838 10.2186 44.9406 11.9803 45.5236C13.7419 46.1066 16.9356 45.9418 19.1028 45.1561L24.9834 43.0142V49.199C18.4438 50.3776 12.1323 50.1241 5.4787 47.9316Z" 
        fill="url(#logo_frost_grad)" 
        stroke="url(#logo_stroke_grad)" 
        stroke-width="0.75" 
        stroke-linejoin="round"/>
</g>
</svg>
